<svg width="102" height="63" viewBox="0 0 102 63" fill="none" xmlns="http://www.w3.org/2000/svg">
<path id="Vector 3" d="M78.2152 10.7176C58.2152 -1.97955 43.7215 0.436111 38.9747 3.23109C39.8614 3.43878 42.432 4.32847 45.6203 6.22571C32.7089 4.78829 24.6287 7.6232 22.2025 9.22033C23.0464 9.32015 25.9367 9.75936 30.7468 10.7176C24.7342 11.3166 11.443 18.5037 7.32911 22.3967C11.7595 20.3004 19.9873 21.4983 17.7722 21.4983C15.557 21.4983 2.26582 28.3859 1 38.5676C40.557 32.5784 60.8101 53.2413 61.7595 57.1343C62.7089 61.0273 62.0759 61.0273 62.0759 61.9257C73.4684 62.884 79.481 54.3393 81.0633 49.9472L78.5316 51.744C78.5316 50.9454 78.4684 49.4082 78.2152 49.6477C77.8987 49.9472 77.2658 50.5461 74.7342 50.5461C72.2025 50.5461 67.1895 46.0482 66.1899 43.9579C68.4051 38.8671 76.5438 39.8393 79.7975 40.0649C82.3291 43.359 80.4894 45.2512 78.5316 48.1504C79.7975 48.4499 83.9114 48.4499 87.7089 44.5569C94.7975 44.5569 99.5232 36.9705 101 33.1773C99.5232 31.4804 95.4937 27.6672 91.1899 25.9902C86.8861 24.3132 86.865 22.2968 87.3924 21.4983C85.1948 20.3263 79.8398 17.6074 76 16.108C74.1013 13.7123 74.7342 12.215 78.2152 10.7176Z" fill="#5A5757" stroke="black"/>
</svg>
